<?xml version="1.0" encoding="UTF-8"?>
<svg id="Layer_1" data-name="Layer 1" xmlns="http://www.w3.org/2000/svg" version="1.1" viewBox="0 0 1366 768">
  <defs>
    <style>
      .cls-1 {
        fill: #601b30;
        stroke-width: 0px;
      }
    </style>
  </defs>
  <path class="cls-1" d="M1205.6,670.1c-41.2,0-82.3,0-123.5.1-5.5,0-7.7-1.8-8.7-7.2-5.3-26.5-11-52.9-16.5-79.3-1.5-7.2-1.4-7.3,6.2-7.3,14.5,0,29,0,43.5,0,3.6,0,5.6-.4,4.6-5-9.8-46.1-19.5-92.2-29.1-138.4-.9-4.6-3.7-4.7-7.3-4.7-44.2,0-88.3,0-132.5,0-12,0-24,.1-36,0-3.9,0-5.4.7-4.5,5.1,9.7,45.6,19.3,91.2,28.8,136.8,1,4.6,2.8,6.4,7.7,6.3,15-.3,30,0,45-.2,4.1,0,5.9,1.4,6.7,5.5,5.7,27.5,11.5,54.9,17.5,82.4,1,4.4-.2,6-4.8,6-83.4,0-166.8-.1-250.1,0-4.5,0-6.2-1.7-7.1-5.8-5.6-27.3-11.4-54.6-17.3-81.9-1.1-4.9.4-6.2,5.2-6.1,13.2.2,26.5-.1,39.7.2,5.1.1,5.9-1.4,4.9-6.1-9.1-42.3-17.9-84.6-26.9-126.9q-1.7-8,6.4-8c43.8,0,87.6,0,131.4,0,7.3,0,7.4-.2,6.2-7.6-4.4-28.8-8.8-57.6-13.1-86.4-1-6.8-.9-6.8,5.9-6.8,55.3,0,110.6,0,165.9,0,7.5,0,7.6,0,6-7.2-9.1-42.8-18.2-85.6-27.1-128.5-1-4.9-3.2-6.3-7.8-6.2-14.8.2-29.7,0-44.5.1-4.3,0-6.3-1.5-7.2-5.8-5.6-27.3-11.4-54.6-17.1-81.9-1.2-5.9-.8-6.5,5.2-6.5,83.2,0,166.4,0,249.6,0,4.4,0,6.1,1.6,7,5.9,5.6,27.3,11.5,54.6,17.2,81.9,1.2,5.8.8,6.4-5.3,6.4-13.4,0-26.9.2-40.3,0-4.1,0-5.1.8-4.2,5.1,12.5,58.5,24.8,117.1,37.1,175.7,13.8,65.6,27.7,131.3,41.4,196.9.9,4.5,2.6,6.2,7.3,6.1,13.4-.3,26.8,0,40.3-.2,4.3,0,6.2,1.4,7.1,5.7,5.6,27.3,11.4,54.6,17.4,81.9,1,4.7,0,6.2-5,6.2-41.7-.2-83.4,0-125.1,0Z"/>
  <path class="cls-1" d="M281.6,98.7c41,0,82,0,123,0,7.8,0,7.8,0,6.2,7.6-5.7,27-11.4,53.9-16.9,80.9-.9,4.4-2.9,5.8-7.2,5.7-15.4-.1-30.7,0-46.1-.2-3.4,0-5,.6-5.7,4.3-9.2,44.2-18.6,88.5-28.1,132.7-1.1,5,1.3,5.1,5,5.1,53.9,0,107.8,0,161.6,0,8.4,0,8.5,0,7.3,8.1-4.4,29-8.6,58-13.2,86.9-.8,5.1.9,5.9,5.4,5.9,45.6-.1,91.2,0,136.7,0,8,0,8.1.1,6.4,8.1-9,42.5-17.9,85-27,127.5-.9,4.4.1,5.5,4.5,5.4,13.4-.2,26.9,0,40.3-.2,4.9,0,6,1.6,5,6.3-5.9,27.4-11.7,54.9-17.3,82.4-.8,4-2.9,5.1-6.7,5-19.3-.1-38.5,0-57.8,0-63.2,0-126.5,0-189.7,0-8.7,0-8.8,0-7-8.6,5.5-26.3,11.2-52.5,16.5-78.8,1-4.7,2.8-6.5,7.6-6.4,14.8.3,29.7,0,44.5.2,4.5,0,6.5-1.2,7.4-5.8,9.4-45.5,18.9-90.9,28.6-136.3,1-4.8-.2-6.1-5.1-6.1-56,.1-112,.1-168,0-4.6,0-6.4,1.5-7.4,6-9.4,45.3-19,90.5-28.5,135.8-1.3,6.3-1.3,6.3,5.5,6.4,14.8,0,29.7.1,44.5,0,4.6,0,5.4,1.6,4.5,5.7-5.9,27.3-11.7,54.6-17.3,81.9-1,4.8-3.1,6.2-7.9,6.2-82.7-.1-165.4,0-248,0-6.9,0-7.2-.3-5.8-6.8,5.7-27.3,11.5-54.6,17.1-81.9.7-3.6,2.5-5,6.1-4.9,13.4.1,26.9-.2,40.3.2,5.4.1,7.3-1.7,8.3-6.9,14.1-67.6,28.4-135.1,42.6-202.7,11.8-56.1,23.6-112.3,35.6-168.4.9-4.4.4-5.9-4.5-5.8-13.2.3-26.5.2-39.7,0-5.9,0-6.4-.7-5.2-6.5,5.7-27,11.5-53.9,16.9-80.9,1-5.2,3.2-6.9,8.5-6.9,41.3.2,82.7.1,124,.1Z"/>
  <path class="cls-1" d="M682.6,98.7c64.7,0,129.5,0,194.2,0,12.4,0,10.8-1,13.2,10.6,5.4,25.4,10.8,50.8,16.2,76.2,1.5,7.1,1.2,7.4-6.2,7.5-14.4,0-28.7.2-43.1-.1-4.9-.1-6.1,1-5,5.9,9,41.8,17.8,83.6,26.6,125.4q1.9,9.1-7.2,9.1c-43.6,0-87.3,0-130.9,0q-8.9,0-8.9-9.1c0-44.2,0-88.3,0-132.5q0-7.9-7.7-8c-29.1,0-58.2.1-87.3-.1-5.5,0-6.9,1.7-6.9,7,.2,44.9.1,89.7,0,134.6,0,8,0,8-7.8,8-43.3,0-86.6,0-129.9,0-7.4,0-7.5-.2-5.9-7.5,8.9-42,17.8-83.9,26.7-125.9,1.4-6.8,1.4-6.9-5.5-6.9-14.5,0-29.1,0-43.6,0-6.1,0-6.4-.5-5.2-6.5,5.7-26.9,11.7-53.8,17.1-80.8,1.1-5.6,3.7-6.9,8.9-6.9,66,.1,132,0,198,0Z"/>
</svg>